<svg id="visual" viewBox="0 0 1980 1080" width="1366" height="auto" xmlns="http://www.w3.org/2000/svg" xmlns:xlink="http://www.w3.org/1999/xlink" version="1.1"><rect x="0" y="0" width="1980" height="1080" fill="#f3f3f3"></rect><defs><linearGradient id="grad1_0" x1="45.5%" y1="100%" x2="100%" y2="0%"><stop offset="13.333333333333334%" stop-color="#333333" stop-opacity="1"></stop><stop offset="86.66666666666667%" stop-color="#333333" stop-opacity="1"></stop></linearGradient></defs><defs><linearGradient id="grad1_1" x1="45.5%" y1="100%" x2="100%" y2="0%"><stop offset="13.333333333333334%" stop-color="#333333" stop-opacity="1"></stop><stop offset="86.66666666666667%" stop-color="#6d6d6d" stop-opacity="1"></stop></linearGradient></defs><defs><linearGradient id="grad1_2" x1="45.5%" y1="100%" x2="100%" y2="0%"><stop offset="13.333333333333334%" stop-color="#aeaeae" stop-opacity="1"></stop><stop offset="86.66666666666667%" stop-color="#6d6d6d" stop-opacity="1"></stop></linearGradient></defs><defs><linearGradient id="grad1_3" x1="45.5%" y1="100%" x2="100%" y2="0%"><stop offset="13.333333333333334%" stop-color="#aeaeae" stop-opacity="1"></stop><stop offset="86.66666666666667%" stop-color="#f3f3f3" stop-opacity="1"></stop></linearGradient></defs><defs><linearGradient id="grad2_0" x1="0%" y1="100%" x2="54.5%" y2="0%"><stop offset="13.333333333333334%" stop-color="#333333" stop-opacity="1"></stop><stop offset="86.66666666666667%" stop-color="#333333" stop-opacity="1"></stop></linearGradient></defs><defs><linearGradient id="grad2_1" x1="0%" y1="100%" x2="54.5%" y2="0%"><stop offset="13.333333333333334%" stop-color="#6d6d6d" stop-opacity="1"></stop><stop offset="86.66666666666667%" stop-color="#333333" stop-opacity="1"></stop></linearGradient></defs><defs><linearGradient id="grad2_2" x1="0%" y1="100%" x2="54.5%" y2="0%"><stop offset="13.333333333333334%" stop-color="#6d6d6d" stop-opacity="1"></stop><stop offset="86.66666666666667%" stop-color="#aeaeae" stop-opacity="1"></stop></linearGradient></defs><defs><linearGradient id="grad2_3" x1="0%" y1="100%" x2="54.5%" y2="0%"><stop offset="13.333333333333334%" stop-color="#f3f3f3" stop-opacity="1"></stop><stop offset="86.66666666666667%" stop-color="#aeaeae" stop-opacity="1"></stop></linearGradient></defs><g transform="translate(1980, 1080)"><path d="M-648 0C-632.1 -115.1 -616.2 -230.3 -561.2 -324C-506.2 -417.7 -412 -490 -312 -540.4C-212 -590.8 -106 -619.4 0 -648L0 0Z" fill="#d0d0d0"></path><path d="M-486 0C-474.1 -86.4 -462.1 -172.7 -420.9 -243C-379.6 -313.3 -309 -367.5 -234 -405.3C-159 -443.1 -79.5 -464.6 0 -486L0 0Z" fill="#8d8d8d"></path><path d="M-324 0C-316 -57.6 -308.1 -115.1 -280.6 -162C-253.1 -208.9 -206 -245 -156 -270.2C-106 -295.4 -53 -309.7 0 -324L0 0Z" fill="#4f4f4f"></path><path d="M-162 0C-158 -28.8 -154 -57.6 -140.3 -81C-126.5 -104.4 -103 -122.5 -78 -135.1C-53 -147.7 -26.5 -154.9 0 -162L0 0Z" fill="#333333"></path></g><g transform="translate(0, 0)"><path d="M648 0C632.4 115.6 616.7 231.2 561.2 324C505.6 416.8 410.2 486.7 310 536.9C209.8 587.1 104.9 617.6 0 648L0 0Z" fill="#d0d0d0"></path><path d="M486 0C474.3 86.7 462.5 173.4 420.9 243C379.2 312.6 307.6 365.1 232.5 402.7C157.4 440.3 78.7 463.2 0 486L0 0Z" fill="#8d8d8d"></path><path d="M324 0C316.2 57.8 308.4 115.6 280.6 162C252.8 208.4 205.1 243.4 155 268.5C104.9 293.6 52.5 308.8 0 324L0 0Z" fill="#4f4f4f"></path><path d="M162 0C158.1 28.9 154.2 57.8 140.3 81C126.4 104.2 102.5 121.7 77.5 134.2C52.5 146.8 26.2 154.4 0 162L0 0Z" fill="#333333"></path></g></svg>